<svg width="50" height="50" viewBox="0 0 50 50" fill="none" xmlns="http://www.w3.org/2000/svg">
<g clip-path="url(#clip0)">
<path d="M41.2326 0H10.8507C4.85894 0 0 4.85894 0 10.8507V41.2326C0 47.2244 4.85894 52.0833 10.8507 52.0833H41.2326C47.2266 52.0833 52.0833 47.2244 52.0833 41.2326V10.8507C52.0833 4.85894 47.2266 0 41.2326 0ZM31.5408 42.513C30.6619 42.6823 30.3819 42.1419 30.3819 41.6797V36.9162C30.3819 35.2951 29.8134 34.2404 29.1884 33.7023C33.0556 33.2726 37.1181 31.8034 37.1181 25.1367C37.1181 23.24 36.441 21.6905 35.332 20.4774C35.51 20.0391 36.1046 18.2726 35.1606 15.8832C35.1606 15.8832 33.7044 15.4167 30.3906 17.6628C29.0017 17.2721 27.5174 17.0833 26.0417 17.0747C24.566 17.0812 23.0816 17.2721 21.6949 17.6584C18.3789 15.4123 16.9206 15.8789 16.9206 15.8789C15.9787 18.2704 16.5733 20.0347 16.7535 20.4753C15.6424 21.6905 14.9653 23.2378 14.9653 25.1345C14.9653 31.7839 19.0169 33.2747 22.8754 33.7153C22.3785 34.1493 21.9293 34.9132 21.773 36.0373C20.7812 36.48 18.2704 37.2461 16.7209 34.592C16.7209 34.592 15.803 32.9253 14.0582 32.8016C14.0582 32.8016 12.3655 32.7799 13.9388 33.8585C13.9388 33.8585 15.0781 34.3924 15.8681 36.3976C15.8681 36.3976 16.8728 39.4965 21.7014 38.4462V41.6775C21.7014 42.1354 21.4214 42.6736 20.5556 42.513C13.6545 40.2192 8.68056 33.7109 8.68056 26.0417C8.68056 16.4518 16.454 8.68056 26.0417 8.68056C35.6293 8.68056 43.4028 16.4518 43.4028 26.0417C43.4028 33.7088 38.4353 40.2148 31.5408 42.513V42.513Z" fill="#146DF1"/>
</g>
<defs>
<clipPath id="clip0">
<rect width="50" height="50" rx="7" fill="white"/>
</clipPath>
</defs>
</svg>
