<svg width="1440" height="1024" viewBox="0 0 1440 1024" fill="none" xmlns="http://www.w3.org/2000/svg">
<g id="First" clip-path="url(#clip0)">
<rect width="1440" height="1024" fill="white"/>
<g id="Group 4">
<path id="Vector 1" d="M741.92 784.288C693.92 755.646 472.665 613.186 880.919 88.2885C1101.42 -195.212 1319.43 -659.152 1662.83 -529.685C2092.09 -367.851 2077.26 432.646 1809.07 599.734C1540.88 766.822 1754.99 986.571 1588.57 1093.23C1422.15 1199.9 1330.38 1241.97 1217.92 1141.29C947.009 898.763 1106.42 1001.79 741.92 784.288Z" fill="url(#paint0_linear)"/>
<g id="undraw_dev_productivity_umsq 1" clip-path="url(#clip1)">
<path id="Vector" d="M1175.72 716.272C1175.72 716.272 1171.85 717.578 1165.55 719.428C1151.62 723.537 1125.85 730.352 1104.02 731.714C1085.21 732.899 1069.33 730.048 1066.42 717.978C1065.18 712.789 1066.94 708.52 1070.79 705.012C1082.28 694.528 1112.3 690.772 1136.11 689.482C1142.83 689.122 1149.05 688.954 1154.22 688.89C1163.01 688.777 1168.78 688.954 1168.78 688.954L1168.92 689.482L1175.72 716.272Z" fill="#A0616A"/>
<path id="Vector_2" d="M1110.66 754.676C1095.71 772.904 1033.95 734.717 1012.35 720.477C1007.64 717.378 1004.84 715.416 1004.84 715.416L1024.6 689.482L1030.86 681.273C1030.86 681.273 1036.46 684.196 1044.74 688.954C1045.04 689.13 1045.34 689.306 1045.65 689.482C1052.79 693.607 1061.75 698.997 1070.79 705.012C1083.27 713.317 1095.88 722.792 1104.02 731.714C1111.97 740.436 1115.62 748.629 1110.66 754.676Z" fill="#A0616A"/>
<g id="Group 3">
<g id="me">
<path id="Vector_3" d="M1109.8 369.726C1142.85 369.726 1169.65 343.358 1169.65 310.831C1169.65 278.304 1142.85 251.936 1109.8 251.936C1076.74 251.936 1049.94 278.304 1049.94 310.831C1049.94 343.358 1076.74 369.726 1109.8 369.726Z" fill="#FFB8B8"/>
<path id="Vector_4" d="M1065.12 340.279C1065.12 340.279 1076.4 423.927 1059.05 433.316C1041.7 442.705 1162.27 443.559 1162.27 443.559C1162.27 443.559 1135.38 371.006 1147.53 348.814L1065.12 340.279Z" fill="#FFB8B8"/>
<path id="Vector_5" d="M1250.31 443.982L1240.29 488.912L1219.08 583.971L1218.45 589.177L1211.13 649.445L1206.27 689.482L1203 716.377C1183.16 726.412 1168.78 733.34 1168.78 733.34C1168.78 733.34 1167.54 727.237 1165.55 719.428C1151.62 723.537 1125.85 730.352 1104.02 731.714C1111.97 740.436 1115.62 748.629 1110.66 754.676C1095.71 772.904 1033.95 734.717 1012.35 720.477C1011.84 723.887 1011.65 727.334 1011.78 730.777L995.246 718.267L996.882 689.482L999.641 640.779L1003.11 579.703C1002.02 577.087 1001.1 574.404 1000.37 571.67C995.303 553.954 989.158 518.578 984.446 488.912C980.653 465.037 977.804 444.863 977.202 440.57C977.121 440.009 977.08 439.721 977.08 439.721L1068.59 399.932C1075.09 414.773 1105.46 419.234 1105.46 419.234C1130.61 417.528 1150.33 404.473 1150.33 404.473L1250.31 443.982Z" fill="#FEFEFF"/>
<path id="Vector_6" d="M1060 255.122L1048.81 250.713C1048.81 250.713 1072.21 225.364 1104.77 227.568L1095.61 217.649C1095.61 217.649 1117.99 208.832 1138.34 231.977C1149.03 244.143 1161.41 258.445 1169.12 274.555H1181.11L1176.11 285.393L1193.61 296.23L1175.64 294.284C1176.72 300.218 1176.88 306.277 1176.13 312.26C1175.36 318.244 1172.26 323.7 1167.48 327.475V327.475C1167.48 327.475 1153.6 299.207 1153.6 294.798V305.82C1153.6 305.82 1142.41 295.901 1142.41 289.288L1136.3 297.003L1133.25 284.879L1095.61 297.003L1101.72 287.084L1078.32 290.39L1087.47 278.266C1087.47 278.266 1061.02 292.594 1060 304.718C1058.99 316.841 1051.25 328.329 1051.25 328.329C1051.25 328.329 1030.5 271.654 1060 255.122Z" fill="#2F2E41"/>
<path id="Vector_7" d="M1315.37 650.542C1309.27 657.046 1294.17 666.841 1275.85 677.445C1269.04 681.385 1261.79 685.446 1254.39 689.482C1236.74 699.117 1218.25 708.664 1203 716.377C1183.16 726.412 1168.78 733.34 1168.78 733.34C1168.78 733.34 1167.54 727.237 1165.55 719.428C1162.88 708.976 1158.86 695.465 1154.66 689.482C1154.52 689.274 1154.37 689.082 1154.22 688.89C1153 687.312 1151.77 686.391 1150.56 686.391L1211.13 649.445L1237.31 633.475L1218.45 589.177L1194.8 533.611L1209.07 488.912L1223.42 443.982H1250.31C1250.31 443.982 1259.22 463.107 1270.6 489.777C1272.3 493.766 1274.06 497.923 1275.85 502.215C1299.28 558.278 1328.48 636.567 1315.37 650.542Z" fill="#DEDCE9"/>
<path id="Vector_8" d="M1044.74 688.954C1042.53 688.945 1040.32 689.122 1038.15 689.482C1019.44 692.646 1013.92 709.313 1012.35 720.477C1011.84 723.887 1011.65 727.334 1011.78 730.777L995.246 718.267L989.223 713.71C974.728 708.736 961.811 699.902 950.612 689.482C940.897 680.283 932.181 670.113 924.608 659.136C917.065 648.317 910.34 636.967 904.489 625.178C902.856 621.888 901.978 618.285 901.918 614.624C901.857 610.963 902.615 607.334 904.139 603.994L924.608 559.103L954.527 493.493C954.747 491.932 954.988 490.405 955.251 488.912C961.185 455.435 977.08 440.57 977.08 440.57H989.223L997.346 488.912L1007.44 548.972L1000.37 571.67L984.023 624.089L999.641 640.779L1044.74 688.954Z" fill="#DEDCE9"/>
</g>
<path id="Vector_9" d="M1058.48 549.02L1068.86 560.938C1072.72 560.214 1076.75 559.364 1080.9 558.409L1077.92 549.02L1085.21 557.39C1129.15 546.753 1183.63 526.073 1183.63 526.073C1183.63 526.073 1124.82 530.317 1080.91 520.877C1061.48 516.7 1041.49 526.177 1033.52 544.105C1028.88 554.525 1029.61 563.553 1046.05 563.553C1051.6 563.459 1057.14 562.947 1062.61 562.02L1058.48 549.02Z" fill="#80E6B5"/>
</g>
<path id="Vector_10" d="M1295.14 744.905V749.766C1295.15 751.101 1294.89 752.423 1294.4 753.667C1294.18 754.221 1293.92 754.756 1293.61 755.268C1292.64 756.871 1291.27 758.197 1289.62 759.118C1287.97 760.039 1286.11 760.523 1284.21 760.522H920.767C918.871 760.523 917.008 760.039 915.36 759.118C913.712 758.197 912.336 756.871 911.366 755.268C911.059 754.757 910.795 754.221 910.577 753.667C910.084 752.423 909.833 751.101 909.836 749.766V744.905C909.836 743.492 910.118 742.093 910.667 740.788C911.216 739.483 912.021 738.297 913.037 737.298C914.052 736.299 915.257 735.507 916.583 734.967C917.909 734.426 919.331 734.148 920.767 734.149H941.716V731.882C941.716 731.823 941.728 731.765 941.751 731.71C941.774 731.656 941.807 731.606 941.849 731.565C941.892 731.523 941.942 731.49 941.997 731.468C942.053 731.445 942.112 731.434 942.172 731.434H953.103C953.162 731.434 953.222 731.445 953.277 731.468C953.332 731.49 953.383 731.523 953.425 731.565C953.467 731.606 953.501 731.656 953.524 731.71C953.547 731.765 953.558 731.823 953.558 731.882V734.149H960.387V731.882C960.387 731.823 960.399 731.765 960.421 731.71C960.444 731.656 960.478 731.606 960.52 731.565C960.563 731.523 960.613 731.49 960.668 731.468C960.724 731.445 960.783 731.434 960.843 731.434H971.773C971.833 731.434 971.893 731.445 971.948 731.468C972.003 731.49 972.054 731.523 972.096 731.565C972.138 731.606 972.172 731.656 972.195 731.71C972.218 731.765 972.229 731.823 972.229 731.882V734.149H979.066V731.882C979.066 731.823 979.078 731.765 979.1 731.71C979.123 731.656 979.157 731.606 979.199 731.565C979.242 731.523 979.292 731.49 979.347 731.468C979.402 731.445 979.462 731.434 979.522 731.434H990.452C990.512 731.434 990.571 731.445 990.627 731.468C990.682 731.49 990.732 731.523 990.775 731.565C990.817 731.606 990.851 731.656 990.874 731.71C990.896 731.765 990.908 731.823 990.908 731.882V734.149H997.737V731.882C997.737 731.823 997.748 731.765 997.771 731.71C997.794 731.656 997.828 731.606 997.87 731.565C997.912 731.523 997.963 731.49 998.018 731.468C998.073 731.445 998.133 731.434 998.192 731.434H1009.12C1009.18 731.434 1009.24 731.445 1009.3 731.468C1009.35 731.49 1009.4 731.523 1009.45 731.565C1009.49 731.606 1009.52 731.656 1009.54 731.71C1009.57 731.765 1009.58 731.823 1009.58 731.882V734.149H1016.41V731.882C1016.41 731.823 1016.42 731.765 1016.44 731.71C1016.46 731.656 1016.5 731.606 1016.54 731.565C1016.58 731.523 1016.63 731.49 1016.69 731.468C1016.74 731.445 1016.8 731.434 1016.86 731.434H1027.79C1027.85 731.434 1027.91 731.445 1027.97 731.468C1028.02 731.49 1028.07 731.523 1028.12 731.565C1028.16 731.606 1028.19 731.656 1028.22 731.71C1028.24 731.765 1028.25 731.823 1028.25 731.882V734.149H1035.09V731.882C1035.09 731.823 1035.1 731.765 1035.12 731.71C1035.14 731.656 1035.18 731.606 1035.22 731.565C1035.26 731.523 1035.31 731.49 1035.37 731.468C1035.42 731.445 1035.48 731.434 1035.54 731.434H1046.47C1046.53 731.434 1046.59 731.445 1046.65 731.468C1046.7 731.49 1046.75 731.523 1046.8 731.565C1046.84 731.606 1046.87 731.656 1046.89 731.71C1046.92 731.765 1046.93 731.823 1046.93 731.882V734.149H1053.76V731.882C1053.76 731.823 1053.77 731.765 1053.79 731.71C1053.81 731.656 1053.85 731.606 1053.89 731.565C1053.93 731.523 1053.98 731.49 1054.04 731.468C1054.09 731.445 1054.15 731.434 1054.21 731.434H1139.83C1139.89 731.434 1139.95 731.445 1140.01 731.468C1140.06 731.49 1140.11 731.523 1140.16 731.565C1140.2 731.606 1140.23 731.656 1140.26 731.71C1140.28 731.765 1140.29 731.823 1140.29 731.882V734.149H1147.13V731.882C1147.13 731.823 1147.14 731.765 1147.16 731.71C1147.18 731.656 1147.22 731.606 1147.26 731.565C1147.3 731.523 1147.35 731.49 1147.41 731.468C1147.46 731.445 1147.52 731.434 1147.58 731.434H1158.51C1158.63 731.435 1158.75 731.482 1158.83 731.566C1158.92 731.65 1158.97 731.764 1158.97 731.882V734.149H1165.8V731.882C1165.8 731.823 1165.81 731.765 1165.83 731.71C1165.86 731.656 1165.89 731.606 1165.93 731.565C1165.97 731.523 1166.02 731.49 1166.08 731.468C1166.13 731.445 1166.19 731.434 1166.25 731.434H1177.18C1177.24 731.434 1177.3 731.445 1177.36 731.468C1177.41 731.49 1177.46 731.523 1177.51 731.565C1177.55 731.606 1177.58 731.656 1177.61 731.71C1177.63 731.765 1177.64 731.823 1177.64 731.882V734.149H1184.47V731.882C1184.47 731.823 1184.48 731.765 1184.5 731.71C1184.53 731.656 1184.56 731.606 1184.6 731.565C1184.64 731.523 1184.69 731.49 1184.75 731.468C1184.81 731.445 1184.86 731.434 1184.92 731.434H1195.86C1195.92 731.434 1195.97 731.445 1196.03 731.468C1196.09 731.49 1196.14 731.523 1196.18 731.565C1196.22 731.606 1196.25 731.656 1196.28 731.71C1196.3 731.765 1196.31 731.823 1196.31 731.882V734.149H1203.15V731.882C1203.15 731.823 1203.16 731.765 1203.18 731.71C1203.21 731.656 1203.24 731.606 1203.28 731.565C1203.32 731.523 1203.37 731.49 1203.43 731.468C1203.48 731.445 1203.54 731.434 1203.6 731.434H1214.53C1214.65 731.435 1214.77 731.483 1214.85 731.567C1214.94 731.651 1214.98 731.764 1214.98 731.882V734.149H1221.82V731.882C1221.82 731.823 1221.83 731.765 1221.85 731.71C1221.88 731.656 1221.91 731.606 1221.95 731.565C1221.99 731.523 1222.04 731.49 1222.1 731.468C1222.16 731.445 1222.21 731.434 1222.27 731.434H1233.21C1233.26 731.434 1233.32 731.445 1233.38 731.468C1233.43 731.49 1233.49 731.523 1233.53 731.565C1233.57 731.606 1233.6 731.656 1233.63 731.71C1233.65 731.765 1233.66 731.823 1233.66 731.882V734.149H1240.49V731.882C1240.49 731.823 1240.5 731.765 1240.52 731.71C1240.55 731.656 1240.58 731.606 1240.62 731.565C1240.67 731.523 1240.72 731.49 1240.77 731.468C1240.83 731.445 1240.89 731.434 1240.95 731.434H1251.88C1251.94 731.434 1252 731.445 1252.05 731.468C1252.11 731.49 1252.16 731.523 1252.2 731.565C1252.24 731.606 1252.27 731.656 1252.3 731.71C1252.32 731.765 1252.33 731.823 1252.33 731.882V734.149H1284.21C1285.65 734.148 1287.07 734.426 1288.4 734.967C1289.72 735.507 1290.93 736.299 1291.94 737.298C1292.96 738.297 1293.76 739.483 1294.31 740.788C1294.86 742.093 1295.14 743.492 1295.14 744.905V744.905Z" fill="#3F3D56"/>
<path id="Vector_11" d="M1400.83 753.667H804.241V755.268H1400.83V753.667Z" fill="#3F3D56"/>
<path id="Vector_12" d="M1265.88 540.171H1130.41V537.423H1068.99V540.171H932.959C930.529 540.171 928.198 541.121 926.48 542.812C924.761 544.503 923.796 546.796 923.796 549.188V731.722C923.796 734.114 924.761 736.407 926.48 738.098C928.198 739.789 930.529 740.739 932.959 740.739H1265.88C1268.31 740.739 1270.64 739.789 1272.36 738.098C1274.08 736.407 1275.04 734.114 1275.04 731.722V549.188C1275.04 548.003 1274.8 546.831 1274.34 545.737C1273.88 544.643 1273.21 543.649 1272.36 542.812C1271.51 541.974 1270.5 541.31 1269.39 540.857C1268.27 540.404 1267.08 540.171 1265.88 540.171V540.171Z" fill="#3F3D56"/>
<path id="Vector_13" d="M1099.69 623.92C1110.92 623.92 1120.03 614.956 1120.03 603.898C1120.03 592.84 1110.92 583.875 1099.69 583.875C1088.45 583.875 1079.34 592.84 1079.34 603.898C1079.34 614.956 1088.45 623.92 1099.69 623.92Z" stroke="#D0CDE1" stroke-width="2" stroke-miterlimit="10"/>
<path id="Vector_14" d="M1093.17 631.129C1104.41 631.129 1113.52 622.164 1113.52 611.106C1113.52 600.048 1104.41 591.083 1093.17 591.083C1081.94 591.083 1072.83 600.048 1072.83 611.106C1072.83 622.164 1081.94 631.129 1093.17 631.129Z" fill="#D0CDE1"/>
<path id="Vector_15" d="M843.264 745.575H820.475V768H843.264V745.575Z" fill="#D0CDE1"/>
<path id="Vector_16" d="M829.431 727.955V755.186H857.103V727.955H829.431ZM855.899 754.001H830.627V729.14H855.899V754.001Z" fill="#3F3D56"/>
<path id="Vector_17" d="M1370.67 745.575H1347.88V768H1370.67V745.575Z" fill="#D0CDE1"/>
<path id="Vector_18" d="M1356.84 727.955V755.186H1384.51V727.955H1356.84ZM1383.3 754.001H1358.03V729.14H1383.3V754.001Z" fill="#3F3D56"/>
<path id="Vector_19" d="M831.978 400.298C867.642 400.298 896.553 371.849 896.553 336.754C896.553 301.66 867.642 273.21 831.978 273.21C796.315 273.21 767.403 301.66 767.403 336.754C767.403 371.849 796.315 400.298 831.978 400.298Z" fill="#2DD986"/>
<path id="Vector_20" d="M854.482 261.243C848.635 260.511 842.717 260.511 836.87 261.243C823.844 262.926 811.583 268.251 801.54 276.586C791.497 284.92 784.094 295.915 780.211 308.265C778.445 313.894 777.445 319.728 777.237 325.615C777.207 326.433 777.188 327.261 777.188 328.089C777.206 345.958 784.427 363.09 797.267 375.725C810.108 388.36 827.517 395.467 845.676 395.484C847.134 395.484 848.592 395.436 850.03 395.35C853.406 395.141 856.762 394.684 860.069 393.982C875.86 390.641 889.943 381.916 899.83 369.347C909.718 356.779 914.774 341.177 914.106 325.297C913.438 309.416 907.088 294.279 896.178 282.558C885.268 270.838 870.5 263.288 854.482 261.243H854.482ZM867.113 390.074H867.103C861.587 391.926 855.846 393.049 850.03 393.414C848.592 393.511 847.134 393.559 845.676 393.559C828.037 393.538 811.127 386.633 798.655 374.36C786.182 362.086 779.166 345.446 779.144 328.089C779.144 327.261 779.164 326.433 779.193 325.615C779.866 308.7 787.162 292.696 799.554 280.954C811.946 269.212 828.473 262.642 845.676 262.62C861.438 262.621 876.688 268.128 888.709 278.161C900.73 288.193 908.741 302.1 911.315 317.402C913.889 332.704 910.858 348.409 902.763 361.718C894.668 375.027 882.034 385.075 867.113 390.074H867.113Z" fill="#3F3D56"/>
<path id="Vector_21" d="M846.655 266.471H844.698V279.95H846.655V266.471Z" fill="#3F3D56"/>
<path id="Vector_22" d="M802.09 283.838L800.707 285.199L810.392 294.73L811.776 293.369L802.09 283.838Z" fill="#3F3D56"/>
<path id="Vector_23" d="M783.058 327.126V329.052H796.756V327.126H783.058Z" fill="#3F3D56"/>
<path id="Vector_24" d="M800.707 370.979L802.09 372.341L811.776 362.81L810.392 361.448L800.707 370.979Z" fill="#3F3D56"/>
<path id="Vector_25" d="M879.576 293.369L880.96 294.73L890.646 285.199L889.262 283.838L879.576 293.369Z" fill="#3F3D56"/>
<path id="Vector_26" d="M894.597 327.126V329.052H908.294V327.126H894.597Z" fill="#3F3D56"/>
<path id="Vector_27" d="M880.96 361.448L879.576 362.81L889.262 372.341L890.646 370.979L880.96 361.448Z" fill="#3F3D56"/>
<path id="Vector_28" d="M846.655 376.229H844.698V389.708H846.655V376.229Z" fill="#3F3D56"/>
<path id="Vector_29" d="M848.611 324.238C847.765 323.613 846.735 323.275 845.676 323.275C844.618 323.275 843.588 323.613 842.741 324.238C842.161 324.671 841.684 325.223 841.342 325.856C840.908 326.67 840.721 327.589 840.802 328.505C840.882 329.421 841.227 330.295 841.797 331.023C842.366 331.752 843.135 332.305 844.014 332.618C844.893 332.93 845.844 332.988 846.755 332.785C847.666 332.583 848.499 332.127 849.156 331.474C849.812 330.82 850.265 329.995 850.46 329.096C850.655 328.197 850.585 327.262 850.257 326.401C849.93 325.54 849.359 324.79 848.611 324.238ZM845.676 330.978C844.898 330.975 844.153 330.67 843.603 330.129C843.053 329.588 842.743 328.855 842.741 328.089C842.745 327.505 842.925 326.935 843.259 326.453C843.546 326.044 843.935 325.715 844.389 325.498C844.842 325.28 845.345 325.182 845.849 325.212C846.353 325.242 846.84 325.399 847.264 325.668C847.688 325.938 848.034 326.31 848.268 326.75C848.503 327.189 848.619 327.681 848.604 328.177C848.589 328.673 848.444 329.158 848.183 329.583C847.923 330.008 847.555 330.36 847.116 330.604C846.677 330.848 846.181 330.977 845.676 330.978Z" fill="#3F3D56"/>
<path id="Vector_30" d="M854.482 244.327H836.87V261.657H854.482V244.327Z" fill="#3F3D56"/>
<path id="Vector_31" d="M845.676 247.215C858.645 247.215 869.158 243.551 869.158 239.031C869.158 234.512 858.645 230.848 845.676 230.848C832.707 230.848 822.194 234.512 822.194 239.031C822.194 243.551 832.707 247.215 845.676 247.215Z" fill="#3F3D56"/>
<path id="arrow" d="M848.611 291.503H842.741V324.238H848.611V291.503Z" fill="#3F3D56"/>
<path id="Vector_32" d="M938.941 392.551H755V394.477H938.941V392.551Z" fill="#3F3D56"/>
<g id="leaf-left">
<g id="Group 2">
<g id="Group 1">
<path id="Vector_33" d="M875.342 693.62C876.102 719.209 860.908 728.586 841.84 729.134C841.397 729.147 840.956 729.155 840.517 729.158C839.633 729.164 838.757 729.15 837.89 729.114C820.645 728.41 806.994 719.402 806.288 695.604C805.557 670.977 836.621 638.978 838.952 636.611L838.956 636.609C839.045 636.519 839.09 636.474 839.09 636.474C839.09 636.474 874.583 668.033 875.342 693.62Z" fill="#D0CDE1"/>
</g>
</g>
<path id="Vector_34" d="M844.32 729.583L856.433 711.857L844.345 731.49L844.37 733.484C843.486 733.491 842.61 733.476 841.743 733.441L842.344 707.802L842.327 707.604L842.35 707.566L842.407 705.144L829.142 686.192L842.391 703.33L842.438 703.842L842.892 684.472L831.435 664.823L842.925 681.069L842.805 640.938L842.805 640.804L842.809 640.935L843.57 672.564L854.011 659.717L843.604 675.289L843.832 692.616L853.44 675.705L843.867 695.163L843.994 704.797L857.967 681.242L844.036 708.159L844.32 729.583Z" fill="#3F3D56"/>
</g>
<g id="leaf-right">
<path id="Vector_35" d="M1405.19 697.624C1405.95 723.213 1390.75 732.591 1371.69 733.139C1371.24 733.152 1370.8 733.159 1370.36 733.162C1369.48 733.169 1368.6 733.154 1367.74 733.119C1350.49 732.414 1336.84 723.406 1336.13 699.609C1335.4 674.981 1366.47 642.983 1368.8 640.616L1368.8 640.614C1368.89 640.523 1368.94 640.478 1368.94 640.478C1368.94 640.478 1404.43 672.038 1405.19 697.624Z" fill="#D0CDE1"/>
<path id="Vector_36" d="M1370.31 729.261L1382.43 711.536L1370.34 731.168L1370.36 733.162C1369.48 733.169 1368.6 733.154 1367.74 733.119L1368.34 707.48L1368.32 707.283L1368.34 707.244L1368.4 704.822L1355.14 685.87L1368.39 703.009L1368.43 703.521L1368.89 684.15L1357.43 664.502L1368.92 680.747L1368.8 640.616L1368.8 640.482L1368.8 640.614L1369.56 672.242L1380.01 659.395L1369.6 674.967L1369.83 692.294L1379.43 675.384L1369.86 694.841L1369.99 704.476L1383.96 680.92L1370.03 707.837L1370.31 729.261Z" fill="#3F3D56"/>
</g>
</g>
</g>
</g>
<defs>
<linearGradient id="paint0_linear" x1="1728.78" y1="-99.554" x2="455.675" y2="355.752" gradientUnits="userSpaceOnUse">
<stop stop-color="#2DD986"/>
<stop offset="1" stop-color="#4793EB"/>
</linearGradient>
<clipPath id="clip0">
<rect width="1440" height="1024" fill="white"/>
</clipPath>
<clipPath id="clip1">
<rect width="650" height="552" fill="white" transform="translate(755 216)"/>
</clipPath>
</defs>
</svg>
